<svg width="37.000000" height="31.000000" viewBox="0 0 37 31" fill="none" xmlns="http://www.w3.org/2000/svg" xmlns:xlink="http://www.w3.org/1999/xlink">
	<desc>
			Created with Pixso.
	</desc>
	<defs/>
	<path id="Vector" d="M28.07 11.93C27.95 11.93 27.83 11.89 27.72 11.83C27.62 11.77 27.53 11.69 27.47 11.58L21.37 1.01C21.28 0.85 21.25 0.66 21.3 0.49C21.35 0.31 21.46 0.16 21.62 0.07C21.78 -0.02 21.97 -0.04 22.14 0C22.32 0.05 22.47 0.17 22.56 0.32L28.66 10.89C28.72 11 28.76 11.12 28.76 11.24C28.76 11.36 28.72 11.48 28.66 11.58C28.6 11.69 28.52 11.77 28.41 11.83C28.31 11.89 28.19 11.93 28.07 11.93ZM7.92 11.93C7.8 11.93 7.68 11.89 7.58 11.83C7.47 11.77 7.39 11.69 7.33 11.58C7.27 11.48 7.23 11.36 7.24 11.24C7.24 11.12 7.27 11 7.33 10.89L13.43 0.32C13.48 0.24 13.54 0.17 13.61 0.12C13.68 0.07 13.76 0.02 13.85 0C13.94 -0.02 14.03 -0.03 14.12 -0.02C14.21 0 14.29 0.02 14.37 0.07C14.45 0.12 14.52 0.18 14.57 0.25C14.63 0.32 14.67 0.4 14.69 0.49C14.71 0.57 14.72 0.67 14.71 0.76C14.7 0.84 14.67 0.93 14.62 1.01L8.52 11.58C8.39 11.8 8.16 11.93 7.92 11.93ZM35.87 13.99L0.12 13.99C-0.06 13.99 -0.24 13.92 -0.37 13.79C-0.5 13.66 -0.57 13.48 -0.57 13.3C-0.57 13.12 -0.5 12.94 -0.37 12.81C-0.24 12.69 -0.06 12.61 0.12 12.61L35.87 12.61C36.05 12.61 36.23 12.69 36.36 12.81C36.49 12.94 36.56 13.12 36.56 13.3C36.56 13.48 36.49 13.66 36.36 13.79C36.23 13.92 36.05 13.99 35.87 13.99Z" fill="#000000" fill-opacity="1.000000" fill-rule="nonzero"/>
	<path id="Vector" d="M0.12 13.99C-0.06 13.99 -0.24 13.92 -0.37 13.79C-0.5 13.66 -0.57 13.48 -0.57 13.3L-0.57 9.18C-0.57 8.99 -0.5 8.82 -0.37 8.69C-0.24 8.56 -0.06 8.49 0.12 8.49C0.3 8.49 0.48 8.56 0.61 8.69C0.74 8.82 0.81 8.99 0.81 9.18L0.81 13.3C0.81 13.48 0.74 13.66 0.61 13.79C0.48 13.92 0.3 13.99 0.12 13.99Z" fill="#000000" fill-opacity="1.000000" fill-rule="nonzero"/>
	<path id="Vector" d="M35.87 9.86L0.12 9.86C-0.06 9.86 -0.24 9.79 -0.37 9.66C-0.5 9.53 -0.57 9.36 -0.57 9.18C-0.57 8.99 -0.5 8.82 -0.37 8.69C-0.24 8.56 -0.06 8.49 0.12 8.49L35.87 8.49C36.05 8.49 36.23 8.56 36.36 8.69C36.49 8.82 36.56 8.99 36.56 9.18C36.56 9.36 36.49 9.53 36.36 9.66C36.23 9.79 36.05 9.86 35.87 9.86Z" fill="#000000" fill-opacity="1.000000" fill-rule="nonzero"/>
	<path id="Vector" d="M36.04 13.5C35.86 13.5 35.69 13.42 35.56 13.29C35.43 13.16 35.36 12.99 35.36 12.81L35.36 8.68C35.36 8.5 35.43 8.33 35.56 8.2C35.69 8.07 35.86 8 36.04 8C36.23 8 36.4 8.07 36.53 8.2C36.66 8.33 36.73 8.5 36.73 8.68L36.73 12.81C36.73 12.99 36.66 13.16 36.53 13.29C36.4 13.42 36.23 13.5 36.04 13.5ZM27.35 26.56C27.25 26.56 27.16 26.54 27.07 26.5C26.98 26.46 26.91 26.41 26.84 26.34C26.78 26.26 26.73 26.18 26.7 26.09C26.67 26 26.66 25.91 26.66 25.81L27.51 16.19C27.52 16.09 27.54 16.01 27.58 15.93C27.62 15.85 27.68 15.77 27.75 15.72C27.82 15.66 27.9 15.61 27.99 15.59C28.07 15.56 28.16 15.55 28.25 15.56C28.63 15.59 28.91 15.93 28.88 16.3L28.03 25.93C28.02 26.1 27.94 26.26 27.81 26.38C27.69 26.49 27.52 26.56 27.35 26.56ZM22.76 26.56L22.73 26.56C22.55 26.55 22.38 26.47 22.25 26.33C22.13 26.2 22.06 26.02 22.07 25.84L22.49 16.21C22.5 16.03 22.59 15.86 22.72 15.74C22.85 15.62 23.03 15.55 23.21 15.56C23.39 15.57 23.57 15.65 23.69 15.78C23.81 15.92 23.88 16.09 23.87 16.28L23.45 25.9C23.44 26.08 23.36 26.24 23.23 26.37C23.11 26.49 22.94 26.56 22.76 26.56ZM18.17 26.56C17.99 26.56 17.81 26.49 17.68 26.36C17.55 26.23 17.48 26.05 17.48 25.87L17.48 16.25C17.48 16.06 17.55 15.89 17.68 15.76C17.81 15.63 17.99 15.56 18.17 15.56C18.35 15.56 18.53 15.63 18.66 15.76C18.78 15.89 18.86 16.06 18.86 16.25L18.86 25.87C18.86 26.05 18.78 26.23 18.66 26.36C18.53 26.49 18.35 26.56 18.17 26.56ZM13.58 26.56C13.4 26.56 13.23 26.49 13.1 26.37C12.98 26.24 12.9 26.08 12.89 25.9L12.47 16.28C12.46 16.09 12.53 15.92 12.65 15.78C12.77 15.65 12.95 15.57 13.13 15.56C13.31 15.55 13.49 15.62 13.62 15.74C13.76 15.86 13.84 16.03 13.85 16.21L14.27 25.84C14.28 26.02 14.21 26.2 14.09 26.33C13.96 26.47 13.79 26.55 13.61 26.56L13.58 26.56ZM8.99 26.56C8.82 26.56 8.65 26.49 8.53 26.38C8.4 26.26 8.32 26.1 8.31 25.93L7.46 16.3C7.45 16.21 7.46 16.12 7.49 16.03C7.51 15.95 7.56 15.87 7.61 15.79C7.67 15.72 7.74 15.67 7.82 15.62C7.91 15.58 7.99 15.55 8.09 15.55C8.18 15.54 8.27 15.55 8.36 15.58C8.44 15.6 8.52 15.65 8.59 15.71C8.66 15.77 8.72 15.84 8.76 15.92C8.8 16 8.83 16.09 8.83 16.19L9.68 25.81C9.68 25.91 9.67 26 9.64 26.09C9.61 26.18 9.56 26.26 9.5 26.33C9.43 26.41 9.35 26.46 9.27 26.5C9.18 26.54 9.09 26.56 8.99 26.56ZM4.54 27.6C4.37 27.6 4.21 27.54 4.09 27.43C3.96 27.32 3.88 27.17 3.86 27.01L2 12.9C1.98 12.72 2.03 12.53 2.14 12.39C2.25 12.24 2.41 12.15 2.59 12.13C2.68 12.11 2.77 12.12 2.86 12.14C2.95 12.16 3.03 12.2 3.1 12.26C3.17 12.31 3.23 12.38 3.28 12.46C3.32 12.54 3.35 12.63 3.36 12.72L5.22 26.83C5.23 26.92 5.23 27.02 5.2 27.12C5.17 27.21 5.12 27.3 5.06 27.37C4.99 27.44 4.91 27.5 4.82 27.54C4.73 27.58 4.64 27.6 4.54 27.6ZM31.8 27.6C31.7 27.6 31.61 27.58 31.52 27.54C31.43 27.5 31.35 27.44 31.28 27.37C31.22 27.3 31.17 27.21 31.14 27.12C31.11 27.02 31.11 26.92 31.12 26.83L32.97 12.72C32.99 12.63 33.02 12.54 33.06 12.46C33.11 12.38 33.17 12.32 33.24 12.26C33.31 12.21 33.39 12.17 33.48 12.14C33.57 12.12 33.66 12.11 33.75 12.13C33.93 12.15 34.09 12.24 34.2 12.39C34.31 12.53 34.36 12.72 34.34 12.9L32.48 27.01C32.46 27.17 32.38 27.32 32.25 27.43C32.13 27.54 31.97 27.6 31.8 27.6ZM29.07 30L7.27 30C7.08 30 6.91 29.92 6.78 29.79C6.65 29.66 6.58 29.49 6.58 29.31C6.58 29.13 6.65 28.95 6.78 28.82C6.91 28.69 7.08 28.62 7.27 28.62L29.07 28.62C29.26 28.62 29.43 28.69 29.56 28.82C29.69 28.95 29.76 29.13 29.76 29.31C29.76 29.49 29.69 29.66 29.56 29.79C29.43 29.92 29.26 30 29.07 30Z" fill="#000000" fill-opacity="1.000000" fill-rule="nonzero"/>
	<path id="Vector" d="M7.09 30.49C6.26 30.49 5.45 30.18 4.83 29.63C4.2 29.08 3.79 28.33 3.68 27.5C3.67 27.41 3.67 27.32 3.69 27.23C3.72 27.14 3.76 27.05 3.81 26.98C3.87 26.91 3.94 26.84 4.01 26.8C4.09 26.75 4.18 26.72 4.27 26.71C4.36 26.7 4.46 26.7 4.55 26.73C4.63 26.75 4.72 26.79 4.79 26.85C4.86 26.91 4.92 26.98 4.97 27.06C5.01 27.14 5.04 27.23 5.05 27.32C5.11 27.82 5.36 28.27 5.73 28.6C6.11 28.93 6.59 29.11 7.09 29.11C7.27 29.11 7.45 29.19 7.58 29.31C7.71 29.44 7.78 29.62 7.78 29.8C7.78 29.98 7.71 30.16 7.58 30.29C7.45 30.42 7.27 30.49 7.09 30.49ZM28.9 30.49C28.72 30.49 28.54 30.42 28.41 30.29C28.28 30.16 28.21 29.98 28.21 29.8C28.21 29.62 28.28 29.44 28.41 29.31C28.54 29.19 28.72 29.11 28.9 29.11C29.4 29.11 29.88 28.93 30.26 28.6C30.63 28.27 30.88 27.82 30.94 27.32C30.96 27.23 30.98 27.14 31.03 27.07C31.07 26.99 31.13 26.92 31.21 26.86C31.28 26.81 31.36 26.77 31.45 26.74C31.53 26.72 31.63 26.72 31.72 26.73C31.9 26.75 32.06 26.85 32.17 26.99C32.28 27.14 32.33 27.32 32.31 27.5C32.2 28.33 31.79 29.08 31.16 29.63C30.54 30.18 29.73 30.49 28.9 30.49ZM15.23 0.67C15.23 -0.89 12.82 -0.89 12.82 0.67C12.82 2.22 15.23 2.22 15.23 0.67ZM23.17 0.67C23.17 -0.89 20.76 -0.89 20.76 0.67C20.76 2.22 23.17 2.22 23.17 0.67Z" fill="#000000" fill-opacity="1.000000" fill-rule="nonzero"/>
</svg>
